<?xml version="1.0" encoding="UTF-8" standalone="no"?>
<svg width="78px" height="17px" viewBox="0 0 78 17" version="1.1" xmlns="http://www.w3.org/2000/svg" xmlns:xlink="http://www.w3.org/1999/xlink">
    <!-- Generator: Sketch 3.8.3 (29802) - http://www.bohemiancoding.com/sketch -->
    <title>vimcar-logo</title>
    <desc>Created with Sketch.</desc>
    <defs></defs>
    <g id="Page-1" stroke="none" stroke-width="1" fill="none" fill-rule="evenodd">
        <g id="Desktop-HD" transform="translate(-681.000000, -40.000000)" fill="#333333">
            <g id="vimcar-logo" transform="translate(681.000000, 40.000000)">
                <g id="vimcar">
                    <g id="Group" transform="translate(22.383420, 3.730570)">
                        <polyline id="Fill-3" points="0.216578785 0.30507772 2.32808138 0.30507772 4.4039363 5.79316062 4.42756324 5.79316062 6.53906583 0.30507772 8.51999847 0.30507772 5.05637153 8.71626943 3.57367723 8.71626943 0.216578785 0.30507772"></polyline>
                        <polygon id="Fill-4" points="10.9015544 0.30507772 12.720829 0.30507772 12.720829 8.71626943 10.9015544 8.71626943 10.9015544 0.30507772"></polygon>
                        <polyline id="Fill-5" points="15.9125389 0.30507772 18.6723316 0.30507772 20.6060104 5.79316062 20.6296373 5.79316062 22.5749223 0.30507772 25.3973057 0.30507772 25.3973057 8.71626943 23.5481865 8.71626943 23.5481865 2.27357513 23.4884974 2.27357513 21.2820725 8.71626943 19.8706736 8.71626943 17.7471503 2.27357513 17.761658 2.27357513 17.761658 8.71626943 15.9125389 8.71626943 15.9125389 0.30507772"></polyline>
                        <path d="M34.0455959,2.47506238 C33.8636269,2.25359697 33.6402073,2.08397272 33.3753368,1.96494543 C33.1104663,1.84633288 32.8041451,1.78661187 32.4559585,1.78661187 C32.1081865,1.78661187 31.7856995,1.853798 31.4893264,1.988585 C31.1929534,2.12295727 30.935544,2.31124434 30.718342,2.55261675 C30.5007254,2.79398915 30.3307772,3.08056705 30.2080829,3.41317989 C30.0853886,3.745378 30.024456,4.10536296 30.024456,4.49272006 C30.024456,4.88878647 30.0853886,5.25084508 30.2080829,5.5788959 C30.3307772,5.90736144 30.4986528,6.19186569 30.7125389,6.4332381 C30.9260104,6.67461051 31.1767876,6.86248285 31.4656995,6.99726985 C31.7541969,7.13205684 32.0646632,7.19924298 32.3966839,7.19924298 C32.7763731,7.19924298 33.1125389,7.11961497 33.4051813,6.96160313 C33.6974093,6.8035913 33.9386528,6.58212589 34.1284974,6.29720692 L35.6708808,7.44808051 C35.3148187,7.94658504 34.8642487,8.31444986 34.318342,8.55167498 C33.7728497,8.78931483 33.2111917,8.90792738 32.6341969,8.90792738 C31.9776166,8.90792738 31.3724352,8.80507454 30.8190674,8.59978357 C30.265285,8.39407788 29.786943,8.0992054 29.3836269,7.71558086 C28.9803109,7.33112687 28.666114,6.86663014 28.4406218,6.32084648 C28.215544,5.77464809 28.1027979,5.16582559 28.1027979,4.49272006 C28.1027979,3.82044399 28.215544,3.21120675 28.4406218,2.66500836 C28.666114,2.11922471 28.9803109,1.65472797 29.3836269,1.27068871 C29.786943,0.886649449 30.265285,0.5921917 30.8190674,0.386486004 C31.3724352,0.180780309 31.9776166,0.0779274611 32.6341969,0.0779274611 C32.8712953,0.0779274611 33.118342,0.0999081101 33.3753368,0.143039949 C33.6323316,0.187001247 33.8855959,0.255846299 34.134715,0.350819291 C34.3838342,0.445792283 34.6225907,0.572284697 34.852228,0.730296532 C35.0814508,0.888723095 35.2870466,1.08281637 35.4690155,1.31216163 L34.0455959,2.47506238" id="Fill-6"></path>
                        <path d="M40.9255959,0.30507772 L42.4559585,0.30507772 L46.1094301,8.71626943 L44.0215544,8.71626943 L43.2978238,6.92683938 L40.0360622,6.92683938 L39.3359585,8.71626943 L37.2957513,8.71626943 L40.9255959,0.30507772 L40.9255959,0.30507772 L40.9255959,0.30507772 L40.9255959,0.30507772 Z M41.6373057,2.7361658 L40.6172021,5.34590674 L42.6694301,5.34590674 L41.6373057,2.7361658 L41.6373057,2.7361658 L41.6373057,2.7361658 L41.6373057,2.7361658 Z" id="Fill-7"></path>
                        <path d="M48.4833161,0.30507772 L51.6841451,0.30507772 C52.1110881,0.30507772 52.5164767,0.339896373 52.9003109,0.422797927 C53.2837306,0.505699482 53.6194819,0.640414508 53.9088083,0.834404145 C54.1968912,1.02839378 54.4265285,1.28746114 54.5964767,1.6157513 C54.7668394,1.94404145 54.8518135,2.35233161 54.8518135,2.8426943 C54.8518135,3.43585492 54.6976166,3.93948187 54.3888083,4.35398964 C54.0804145,4.76974093 53.6294301,5.04580311 53.0370984,5.15647668 L55.172228,8.71626943 L52.9533679,8.71626943 L51.198342,5.34590674 L50.3025907,5.34590674 L50.3025907,8.71626943 L48.4833161,8.71626943 L48.4833161,0.30507772 L48.4833161,0.30507772 L48.4833161,0.30507772 L48.4833161,0.30507772 Z M50.3025907,3.79481865 L51.3757513,3.79481865 C51.5423834,3.79481865 51.7181347,3.77492228 51.9038342,3.76331606 C52.0899482,3.75129534 52.2574093,3.70860104 52.4082902,3.64932642 C52.5579275,3.59005181 52.6826943,3.49388601 52.7813472,3.36704663 C52.880829,3.24062176 52.9297409,3.0611399 52.9297409,2.83150259 C52.9297409,2.61803109 52.8862176,2.44725389 52.799171,2.32082902 C52.7121244,2.19398964 52.6014508,2.09699482 52.4675648,2.02943005 C52.3324352,1.9626943 52.1782383,1.93119171 52.0045596,1.90756477 C51.8308808,1.88310881 51.6605181,1.88601036 51.4943005,1.88601036 L50.3025907,1.88601036 L50.3025907,3.79481865 L50.3025907,3.79481865 L50.3025907,3.79481865 L50.3025907,3.79481865 Z" id="Fill-8"></path>
                    </g>
                    <path d="M15.9397553,5.49494255 L12.2083563,0.845765455 C11.9766465,0.555347026 11.4825532,0.344359275 11.1103252,0.344359275 L5.12649103,0.344359275 C4.75426305,0.344359275 4.26016978,0.555347026 4.02845993,0.845765455 L0.297060966,5.50114806 C0.0653511217,5.79115279 -0.0569286711,6.31986325 0.0259728835,6.68185206 L1.35778635,12.5047002 C1.4402734,12.866689 1.78224231,13.2936289 2.1175791,13.4545588 L7.5090817,16.0451574 C7.84400398,16.2060873 8.39281227,16.2060873 8.72773455,16.0447437 L14.1192371,13.452904 C14.4545739,13.2923878 14.7965428,12.8642068 14.8790299,12.502218 L16.2108434,6.67936987 C16.2937449,6.31738106 16.1714651,5.78536099 15.9397553,5.49494255 M11.3192371,5.7055166 L8.44877082,10.905744 C8.26928895,11.2309134 7.97581745,11.2309134 7.79633559,10.905744 L4.92545476,5.7055166 C4.74597289,5.38034723 4.8852475,5.21776257 5.23509206,5.34435519 L7.4825532,6.15976079 C7.83239776,6.28676717 8.40441849,6.28676717 8.75426305,6.16017451 L11.0100143,5.34435519 C11.3594444,5.21734885 11.498719,5.38034723 11.3192371,5.7055166" id="Fill-9"></path>
                </g>
            </g>
        </g>
    </g>
</svg>